<svg xmlns="http://www.w3.org/2000/svg" width="409" height="570" fill="none"><path fill="#000" d="M115 271h-2v2h2v-2ZM129 271h-12v2h12v-2ZM115 275h-2v2h2v-2ZM129 275h-12v2h12v-2ZM115 279h-2v2h2v-2ZM129 279h-12v2h12v-2ZM115 283h-2v2h2v-2ZM129 283h-12v2h12v-2ZM155 283h-16v2h16v-2ZM153 273v6h-12v-6h12Zm2-2h-16v10h16v-10ZM169 271h-4v6h4v-6ZM181 271h-4v6h4v-6ZM175 271h-4v6h4v-6ZM169 279h-4v6h4v-6ZM181 279h-4v6h4v-6ZM175 279h-4v6h4v-6Z"/><rect width="111" height="59" x="91.5" y="248.5" stroke="#7B61FF" stroke-dasharray="10 5" rx="4.5"/><path fill="#83B3D3" fill-rule="evenodd" d="M248.95 271.95c.17-.55 0-.95-.8-.95h-2.62c-.67 0-.98.35-1.14.73 0 0-1.34 3.2-3.23 5.27-.61.6-.89.8-1.22.8-.17 0-.42-.2-.42-.74v-5.11c0-.66-.19-.95-.74-.95h-4.13c-.42 0-.67.3-.67.6 0 .61.95.76 1.05 2.5v3.8c0 .84-.16.99-.5.99-.88 0-3.05-3.21-4.33-6.89-.25-.71-.5-1-1.17-1h-2.63c-.75 0-.9.35-.9.73 0 .68.89 4.07 4.15 8.55 2.16 3.06 5.22 4.72 8 4.72 1.67 0 1.88-.37 1.88-1v-2.32c0-.73.16-.88.69-.88.38 0 1.05.2 2.61 1.67 1.78 1.75 2.07 2.53 3.07 2.53h2.63c.75 0 1.13-.37.91-1.1-.24-.72-1.09-1.77-2.22-3.02-.6-.7-1.53-1.47-1.8-1.86-.4-.49-.28-.7 0-1.14 0 0 3.2-4.43 3.53-5.93Z" clip-rule="evenodd"/><path fill="#83B3D3" d="m276.29 270.1-15.95 6.15c-1.09.44-1.08 1.04-.2 1.31l4.1 1.28 9.47-5.98c.44-.27.85-.12.52.18l-7.68 6.92-.28 4.22c.41 0 .6-.19.83-.41l1.99-1.94 4.13 3.06c.77.42 1.31.2 1.5-.7l2.72-12.8c.28-1.12-.43-1.62-1.15-1.3ZM306.1 269.5h-15.43c-1.86 0-3.17 1.6-3.17 3.4V283c0 1.9 1.31 3.5 3.17 3.5h15.66c1.64 0 3.17-1.6 3.17-3.4v-10.2c-.22-1.8-1.53-3.4-3.4-3.4Zm-10.94 12.54v-8.08l7.33 4.04-7.33 4.04Z"/><rect width="112" height="59" x="211.5" y="248.5" stroke="#7B61FF" stroke-dasharray="10 5" rx="4.5"/><path fill="#000" d="m58 273-6.5 7.4-3.4-3.9-1.1 1.2 4.5 5.2 7.7-8.6L58 273ZM25 278a5 5 0 1 1 10 0 5 5 0 0 1-10 0Z"/><rect width="82" height="59" x=".5" y="248.5" stroke="#7B61FF" stroke-dasharray="10 5" rx="4.5"/><path fill="#000" fill-rule="evenodd" d="m62 146.38-37.56 37.56 2.12 2.12 7.44-7.44V216h-4v3h65v-3h-5v-37.38l7.44 7.44 2.12-2.12-9.56-9.56V147H76v13.38l-14-14Zm17 17 8 8V150h-8v13.38Zm8 12.24-25-25-25 25V216h50v-40.38ZM54 188v24h16v-24H54Zm3 21v-18h10v18H57Zm-16-21h3v4h-3v-4Zm9 0h-3v4h3v-4Zm-9 6h3v4h-3v-4Zm9 0h-3v4h3v-4Zm24-6h3v4h-3v-4Zm9 0h-3v4h3v-4Zm-9 6h3v4h-3v-4Zm9 0h-3v4h3v-4Zm-26-20a5 5 0 1 1 10 0 5 5 0 0 1-10 0Zm5-8a8 8 0 1 0 0 16 8 8 0 0 0 0-16Z" clip-rule="evenodd"/><path fill="#000" d="M186.9 195.7H121.1c-2.3 0-4.1 1.9-4.1 4.3v3.5c0 2.4 1.9 4.3 4.1 4.3h.9v1.1c0 5.5 4.3 10.1 9.6 10.1h44.6c5.3 0 9.6-4.5 9.6-10.1v-1.1h.9c2.3 0 4.1-1.9 4.1-4.3V200a4 4 0 0 0-3.9-4.3Zm-3.9 13.2c0 3.9-3 7-6.7 7h-44.7c-3.7 0-6.7-3.2-6.7-7v-1.1H183v1.1Zm5.1-5.4c0 .7-.6 1.3-1.2 1.3H121c-.7 0-1.2-.6-1.2-1.3V200c0-.7.6-1.3 1.2-1.3h65.8c.7 0 1.2.6 1.2 1.3.1 0 .1 3.5.1 3.5ZM132.6 187.4l5.4 4.1 5.3-4.1 5.3 4.1 5.3-4.1 5.4 4.1 5.3-4.1 5.3 4.1 5.4-4.1 5.3 4.1 6.2-4.7-1.7-2.5-4.5 3.4-5.3-4.1-5.4 4.1-5.3-4.1-5.3 4.1-5.4-4.1-5.3 4.1-5.3-4.1-5.3 4.1-5.4-4.1-5.3 4.1-4.5-3.4-1.7 2.5 6.2 4.7 5.3-4.1ZM125 180.5h60.8c0-.6.1-1.2.1-1.9v-1.2c-.7-15.7-14.7-28.4-31.9-28.4-17.3 0-31.3 12.7-32 28.5v1.2c0 .6 0 1.2.1 1.8h2.9Zm29-28.5c15.6 0 28.4 11.3 29 25.5h-58c.6-14.1 13.4-25.5 29-25.5Z"/><path fill="#000" d="M154 166.3c1.05 0 1.9-.9 1.9-2s-.85-2-1.9-2c-1.05 0-1.9.9-1.9 2s.85 2 1.9 2ZM146.2 161.2c1.05 0 1.9-.9 1.9-2s-.85-2-1.9-2c-1.05 0-1.9.9-1.9 2s.85 2 1.9 2ZM161.7 161.2c1.05 0 1.9-.9 1.9-2s-.85-2-1.9-2c-1.05 0-1.9.9-1.9 2s.85 2 1.9 2ZM275.1 165.5h-24.8c13.8-6.9 14.9-11.3 14.4-13.7-1.2-4-5.7-7-10-5.4-5.6 2.1-7.1 10.4-8.6 16.4-2-6.1-3.8-13.8-8.2-17.7-1.3-1.1-3.1-2.3-5.8-2-4 .4-9.8 5.4-7.5 11 2.3 5.4 9.7 8.8 14.6 11.5h-22.3a2.9 2.9 0 0 0-2.9 2.9v11.3c0 1.6 1.3 2.9 2.9 2.9h.3V219H275v-36.4h.1c1.6 0 2.9-1.3 2.9-2.9v-11.3c0-1.6-1.3-2.9-2.9-2.9Zm-18.7-16.6c2.1-.3 5 1.3 5.3 3.2.4 2.8-3.4 5.3-5.1 6.4-2.5 1.7-4.9 2.6-7.3 4.1.9-3.7 2.5-13 7.1-13.7Zm-22.9 10c-2.2-1.5-6.5-4.4-6.4-7.8.1-3.6 5.7-6.6 8.8-3.9 3.9 3.4 5.7 11.1 7.1 16.6-3.2-1.5-6.3-2.8-9.5-4.9Zm6 57.1h-19.4v-33.4h19.4V216Zm0-36.5H217v-11h22.5v11Zm10.2 0V216h-7.2v-47.4h7.2v10.9ZM272 216h-19.4v-33.4H272V216Zm2.9-36.5h-22.3v-11h22.3v11Z"/><rect width="307" height="123" x=".5" y="118.5" stroke="#7B61FF" stroke-dasharray="10 5" rx="4.5"/></svg>